<svg xmlns="http://www.w3.org/2000/svg" viewBox="0 0 24 18"><defs><style>.default_image_cls-1{fill:currentColor}</style></defs><g id="icn_image" transform="translate(-147 -315)"><g id="Group_19794" data-name="Group 19794" transform="translate(147 315)"><path id="Path_6896" d="M23.62 33.331H.38a.371.371 0 00-.38.362v17.276a.371.371 0 00.38.362h23.24a.371.371 0 00.38-.362V33.693a.371.371 0 00-.38-.362zm-1.9 15.117l-5.23-5.15a.162.162 0 00-.215-.008l-3.627 3.036L8.011 40.9a.156.156 0 00-.124-.055.158.158 0 00-.121.059l-5.484 7V35.5h19.436z" class="default_image_cls-1" data-name="Path 6896" transform="translate(0 -33.331)"/><path id="Path_6897" d="M187.531 90.491a2 2 0 10-2-2 2 2 0 002 2z" class="default_image_cls-1" data-name="Path 6897" transform="translate(-170.29 -82.619)"/></g></g></svg>